<svg xmlns="http://www.w3.org/2000/svg" xmlns:xlink="http://www.w3.org/1999/xlink" width="1080" zoomAndPan="magnify" viewBox="0 0 810 809.999993" height="1080" preserveAspectRatio="xMidYMid meet" version="1.0"><defs><g/></defs><g fill="#5ce1e6" fill-opacity="1"><g transform="translate(310.511882, 372.945298)"><g><path d="M 12.703125 0 L 7.21875 0 L 7.21875 -47.734375 L 14.109375 -47.734375 L 37.375 -11.265625 L 38.203125 -11.390625 L 38.203125 -47.734375 L 43.640625 -47.734375 L 43.640625 0 L 37.765625 0 L 13.515625 -39.015625 L 12.703125 -38.875 Z M 12.703125 0 "/></g></g><g transform="translate(361.404551, 372.945298)"><g><path d="M 26.1875 0.6875 C 22.050781 0.6875 18.367188 -0.203125 15.140625 -1.984375 C 11.921875 -3.773438 9.382812 -6.503906 7.53125 -10.171875 C 5.6875 -13.835938 4.765625 -18.398438 4.765625 -23.859375 C 4.765625 -29.328125 5.6875 -33.894531 7.53125 -37.5625 C 9.382812 -41.226562 11.921875 -43.953125 15.140625 -45.734375 C 18.367188 -47.523438 22.050781 -48.421875 26.1875 -48.421875 C 30.320312 -48.421875 34 -47.523438 37.21875 -45.734375 C 40.4375 -43.953125 42.96875 -41.226562 44.8125 -37.5625 C 46.664062 -33.894531 47.59375 -29.328125 47.59375 -23.859375 C 47.59375 -18.398438 46.664062 -13.835938 44.8125 -10.171875 C 42.96875 -6.503906 40.4375 -3.773438 37.21875 -1.984375 C 34 -0.203125 30.320312 0.6875 26.1875 0.6875 Z M 26.1875 -4.5 C 31.144531 -4.5 34.953125 -6.050781 37.609375 -9.15625 C 40.265625 -12.257812 41.59375 -17.160156 41.59375 -23.859375 C 41.59375 -30.566406 40.265625 -35.46875 37.609375 -38.5625 C 34.953125 -41.664062 31.144531 -43.21875 26.1875 -43.21875 C 15.90625 -43.21875 10.765625 -36.765625 10.765625 -23.859375 C 10.765625 -10.953125 15.90625 -4.5 26.1875 -4.5 Z M 26.1875 -4.5 "/></g></g><g transform="translate(413.766219, 372.945298)"><g><path d="M 12.828125 -47.734375 L 12.828125 -4.640625 L 35.8125 -4.640625 L 35.8125 0 L 7.21875 0 L 7.21875 -47.734375 Z M 12.828125 -47.734375 "/></g></g><g transform="translate(451.601115, 372.945298)"><g><path d="M 37.25 -47.734375 L 37.25 -42.96875 L 22.296875 -42.96875 L 22.296875 0 L 16.71875 0 L 16.71875 -42.96875 L 1.765625 -42.96875 L 1.765625 -47.734375 Z M 37.25 -47.734375 "/></g></g><g transform="translate(490.578566, 372.945298)"><g><path d="M 12.828125 0 L 7.21875 0 L 7.21875 -47.734375 L 12.828125 -47.734375 Z M 12.828125 0 "/></g></g><g transform="translate(510.654891, 372.945298)"><g><path d="M 8.03125 0 L 1.890625 0 L 16.78125 -24.546875 L 2.578125 -47.734375 L 8.875 -47.734375 L 20.859375 -28.375 L 21.671875 -28.375 L 33.828125 -47.734375 L 39.828125 -47.734375 L 25.625 -24.546875 L 40.515625 0 L 34.25 0 L 21.546875 -20.671875 L 20.734375 -20.671875 Z M 8.03125 0 "/></g></g></g><g fill="#5ce1e6" fill-opacity="1"><g transform="translate(553.046949, 372.945298)"><g/></g></g><g fill="#5ce1e6" fill-opacity="1"><g transform="translate(407.478901, 466.543411)"><g><path d="M 42.96875 0 L 36.953125 0 L 32.546875 -13.09375 L 12.203125 -13.09375 L 7.765625 0 L 1.890625 0 L 18.546875 -47.734375 L 26.3125 -47.734375 Z M 21.96875 -41.953125 L 13.78125 -17.796875 L 30.953125 -17.796875 L 22.78125 -41.953125 Z M 21.96875 -41.953125 "/></g></g><g transform="translate(452.33235, 466.543411)"><g><path d="M 12.828125 0 L 7.21875 0 L 7.21875 -47.734375 L 12.828125 -47.734375 Z M 12.828125 0 "/></g></g></g></svg>